<?xml version="1.0" standalone="no"?>
<!DOCTYPE svg PUBLIC "-//W3C//DTD SVG 20010904//EN"
 "http://www.w3.org/TR/2001/REC-SVG-20010904/DTD/svg10.dtd">
<svg version="1.0" xmlns="http://www.w3.org/2000/svg"
 width="1280.000000pt" height="1280.000000pt" viewBox="0 0 1280.000000 1280.000000"
 preserveAspectRatio="xMidYMid meet">

<g transform="translate(0.000000,1280.000000) scale(0.100000,-0.100000)"
fill="#000000" stroke="none">
<path d="M5960 9097 c0 -2 15 -16 33 -33 l32 -29 -29 33 c-28 30 -36 37 -36
29z"/>
<path d="M4905 8470 c-27 -5 -66 -11 -85 -13 -68 -10 -141 -27 -160 -37 -11
-6 -20 -8 -20 -5 0 3 -10 -1 -22 -9 -12 -9 -30 -16 -40 -16 -26 0 -22 -12 18
-51 19 -18 122 -149 227 -289 150 -201 221 -285 332 -396 112 -113 154 -148
211 -177 167 -86 523 -126 532 -60 6 39 -103 139 -301 278 -55 39 -102 76
-105 83 -10 31 110 -3 241 -69 144 -73 315 -224 432 -382 94 -127 84 -123 85
-32 4 210 -13 334 -61 471 -43 122 -78 188 -148 280 -121 160 -283 265 -533
348 -122 41 -205 62 -273 72 -80 11 -276 13 -330 4z m71 -136 c-4 -9 -9 -15
-11 -12 -3 3 -3 13 1 22 4 9 9 15 11 12 3 -3 3 -13 -1 -22z m268 -53 c3 -5 -2
-15 -12 -22 -15 -12 -16 -12 -5 2 7 9 10 19 6 22 -3 4 -4 7 0 7 3 0 8 -4 11
-9z m-31 -18 c-3 -7 -9 -13 -14 -13 -5 0 -9 6 -9 13 0 8 6 14 14 14 8 0 12 -6
9 -14z m-353 1 c0 -8 -19 -13 -24 -6 -3 5 1 9 9 9 8 0 15 -2 15 -3z m427 -10
c-3 -3 -12 -4 -19 -1 -8 3 -5 6 6 6 11 1 17 -2 13 -5z m-41 -27 c8 3 14 -1 14
-10 0 -18 -14 -30 -24 -20 -11 12 -48 14 -61 3 -8 -7 -12 -5 -12 5 0 7 3 14 6
13 30 -3 51 4 45 15 -5 9 -4 9 6 0 7 -6 19 -9 26 -6z m586 -219 c-9 -9 -15 -9
-24 0 -9 9 -7 12 12 12 19 0 21 -3 12 -12z m-45 -23 c0 -8 -4 -12 -9 -9 -5 3
-6 10 -3 15 9 13 12 11 12 -6z m-422 -203 c-3 -3 -11 0 -18 7 -9 10 -8 11 6 5
10 -3 15 -9 12 -12z"/>
<path d="M7696 8470 c-16 -5 -33 -7 -37 -4 -20 12 -306 -65 -412 -110 -152
-66 -226 -115 -339 -228 -59 -58 -108 -113 -108 -122 0 -9 -4 -16 -9 -16 -5 0
-11 -8 -15 -17 -3 -10 -15 -34 -27 -53 -35 -57 -86 -199 -103 -285 -28 -146
-42 -331 -29 -388 l8 -39 74 106 c79 114 219 256 311 317 135 89 341 177 371
158 11 -7 9 -12 -10 -26 -14 -9 -33 -25 -43 -35 -10 -10 -21 -18 -25 -18 -5 0
-19 -9 -33 -21 -14 -11 -47 -35 -75 -54 -62 -42 -175 -140 -209 -182 -45 -53
-30 -63 95 -63 190 0 362 44 479 123 76 51 193 167 291 287 20 25 52 64 70 86
54 66 118 151 201 264 42 58 104 132 137 165 33 33 61 63 61 68 0 16 -198 72
-296 82 -107 11 -299 14 -328 5z m-26 -139 c0 -5 -9 -7 -20 -4 -11 3 -20 7
-20 9 0 2 9 4 20 4 11 0 20 -4 20 -9z m-2 -110 c10 -6 10 -10 -1 -20 -8 -6
-14 -19 -12 -29 1 -9 0 -11 -2 -4 -3 7 -10 9 -16 5 -9 -5 -9 -3 -1 8 6 8 10
22 9 32 -3 19 3 21 23 8z m82 -1 c0 -5 -5 -10 -11 -10 -5 0 -7 5 -4 10 3 6 8
10 11 10 2 0 4 -4 4 -10z m-10 -34 c0 -2 -8 -10 -17 -17 -16 -13 -17 -12 -4 4
13 16 21 21 21 13z m-163 -48 c-3 -8 -6 -5 -6 6 -1 11 2 17 5 13 3 -3 4 -12 1
-19z m-572 -88 c3 -6 -1 -7 -9 -4 -18 7 -21 14 -7 14 6 0 13 -4 16 -10z m45
-165 c0 -2 -6 -8 -13 -14 -10 -8 -14 -7 -14 2 0 8 6 14 14 14 7 0 13 -1 13 -2z"/>
<path d="M3668 7755 c-5 -5 -8 -76 -8 -159 0 -219 23 -393 58 -436 14 -17 35
-23 122 -31 149 -13 278 -29 325 -39 22 -5 78 -16 123 -25 46 -9 150 -38 230
-65 424 -140 792 -375 1131 -720 230 -235 449 -564 550 -830 18 -47 36 -89 41
-95 4 -5 22 -57 39 -115 58 -190 48 -175 116 -178 33 -2 79 -1 102 3 42 6 43
7 59 63 87 314 273 676 491 957 324 417 825 763 1339 924 200 63 304 82 644
121 52 6 105 17 117 25 14 9 25 32 32 67 20 93 52 396 49 465 l-3 68 -60 3
c-55 4 -319 -13 -390 -24 -213 -33 -392 -77 -585 -143 -107 -36 -253 -100
-262 -115 -4 -6 -8 -8 -8 -4 0 4 -23 -4 -50 -18 -28 -14 -48 -29 -45 -35 3 -5
0 -6 -8 -3 -16 6 -120 -54 -277 -159 -55 -38 -226 -176 -305 -249 -85 -77
-238 -249 -315 -353 -115 -156 -198 -290 -270 -435 -28 -58 -56 -114 -62 -124
-6 -11 -18 -42 -28 -70 -10 -28 -34 -95 -54 -150 -19 -54 -38 -117 -41 -141
-8 -51 -21 -74 -33 -60 -5 6 -24 57 -42 115 -62 200 -177 479 -201 488 -5 2
-9 9 -9 17 0 16 -118 212 -176 290 -173 237 -303 377 -489 530 -105 86 -266
200 -325 230 -18 10 -40 23 -47 30 -18 19 -304 159 -388 190 -161 61 -347 113
-498 140 -49 8 -93 17 -97 20 -5 3 -46 8 -92 11 -45 3 -85 7 -89 10 -13 8
-304 16 -311 9z m5097 -183 c-3 -3 -11 0 -18 7 -9 10 -8 11 6 5 10 -3 15 -9
12 -12z m40 -22 c-3 -5 -1 -10 5 -10 6 0 8 -4 5 -10 -4 -6 -11 -5 -19 3 -15
13 -12 27 5 27 6 0 7 -4 4 -10z m-4697 -25 c-6 -14 -13 -23 -15 -21 -5 5 15
46 22 46 3 0 -1 -11 -7 -25z m232 0 c0 -8 -2 -15 -4 -15 -2 0 -6 7 -10 15 -3
8 -1 15 4 15 6 0 10 -7 10 -15z m4165 -33 c-3 -3 -11 0 -18 7 -9 10 -8 11 6 5
10 -3 15 -9 12 -12z m-4195 4 c0 -2 -8 -10 -17 -17 -16 -13 -17 -12 -4 4 13
16 21 21 21 13z m-75 -16 c3 -5 1 -10 -4 -10 -6 0 -11 5 -11 10 0 6 2 10 4 10
3 0 8 -4 11 -10z m236 -8 c-7 -2 -18 1 -23 6 -8 8 -4 9 13 5 13 -4 18 -8 10
-11z m170 -11 c0 -3 2 -14 4 -23 2 -10 -1 -18 -7 -18 -6 0 -8 7 -5 15 4 8 2
17 -3 20 -6 4 -10 0 -10 -7 0 -11 -2 -11 -9 0 -4 7 -14 12 -21 10 -7 -2 -14 2
-16 8 -3 6 9 8 31 6 19 -2 35 -7 36 -11z m29 3 c0 -8 -5 -12 -10 -9 -6 4 -8
11 -5 16 9 14 15 11 15 -7z m-532 -19 c-3 -3 -9 2 -12 12 -6 14 -5 15 5 6 7
-7 10 -15 7 -18z m286 13 c-3 -4 -9 -8 -15 -8 -5 0 -9 4 -9 8 0 5 7 9 15 9 8
0 12 -4 9 -9z m4041 3 c3 -5 2 -12 -3 -15 -5 -3 -9 1 -9 9 0 17 3 19 12 6z
m140 0 c3 -5 2 -12 -3 -15 -5 -3 -9 1 -9 9 0 17 3 19 12 6z m442 -6 c0 -8 -4
-12 -9 -9 -5 3 -6 10 -3 15 9 13 12 11 12 -6z m-4507 -15 c0 -5 -2 -10 -4 -10
-3 0 -8 5 -11 10 -3 6 -1 10 4 10 6 0 11 -4 11 -10z m44 -9 c14 -15 15 -21 4
-27 -7 -4 -10 -4 -6 1 11 11 -12 36 -25 28 -6 -3 -7 -1 -3 5 9 15 10 15 30 -7z
m119 -5 c20 4 20 4 2 -4 -19 -9 -19 -9 0 -20 11 -6 16 -12 11 -12 -14 0 -46
31 -45 44 0 7 2 7 5 0 3 -7 15 -10 27 -8z m161 6 c3 -5 -1 -9 -9 -9 -8 0 -12
4 -9 9 3 4 7 8 9 8 2 0 6 -4 9 -8z m-780 -10 c2 -4 -5 -9 -17 -9 -17 -2 -19 0
-7 7 18 12 18 12 24 2z m-260 -17 c-4 -8 -8 -15 -10 -15 -2 0 -4 7 -4 15 0 8
4 15 10 15 5 0 7 -7 4 -15z m803 -10 c0 -8 -4 -12 -9 -9 -5 3 -6 10 -3 15 9
13 12 11 12 -6z m3703 -5 c0 -5 -6 -12 -12 -16 -7 -4 -10 -4 -6 1 4 4 3 14 -4
22 -8 11 -7 12 6 7 9 -3 16 -10 16 -14z m-3669 -23 c-10 -9 -11 -8 -5 6 3 10
9 15 12 12 3 -3 0 -11 -7 -18z m-836 3 c3 -6 -1 -7 -9 -4 -18 7 -21 14 -7 14
6 0 13 -4 16 -10z m4180 -61 c-4 -5 -12 -9 -18 -8 -9 0 -8 2 1 6 6 2 9 10 6
15 -4 7 -2 8 5 4 6 -4 9 -12 6 -17z m-3340 -8 c3 -5 2 -12 -3 -15 -5 -3 -9 1
-9 9 0 17 3 19 12 6z m-519 -56 c-1 -14 -5 -27 -8 -30 -4 -5 -4 19 1 48 3 19
9 4 7 -18z m541 -70 c0 -8 -4 -12 -9 -9 -5 3 -6 10 -3 15 9 13 12 11 12 -6z
m3130 -62 c0 -9 -4 -10 -14 -2 -7 6 -13 12 -13 14 0 1 6 2 13 2 8 0 14 -6 14
-14z m-2857 -25 c0 -6 -6 -5 -15 2 -8 7 -15 14 -15 16 0 2 7 1 15 -2 8 -4 15
-11 15 -16z m2620 -92 c0 -2 -8 -10 -17 -17 -16 -13 -17 -12 -4 4 13 16 21 21
21 13z m-2126 -37 c-3 -5 -10 -7 -15 -3 -5 3 -7 10 -3 15 3 5 10 7 15 3 5 -3
7 -10 3 -15z m41 -6 c-2 -10 -4 -20 -5 -23 -1 -3 -1 -9 0 -15 1 -5 -2 -6 -6
-2 -15 15 -15 57 0 57 8 0 13 -7 11 -17z m8 -60 c-7 -2 -19 -2 -25 0 -7 3 -2
5 12 5 14 0 19 -2 13 -5z m44 -16 c1 -11 1 -18 0 -16 -2 2 -8 11 -15 20 -9 12
-9 16 1 16 7 0 14 -9 14 -20z m-19 -49 c1 -24 -1 -29 -7 -18 -5 8 -7 18 -5 22
3 4 0 8 -6 8 -6 0 -8 5 -5 10 12 19 21 10 23 -22z m34 3 c16 -18 15 -20 -3
-18 -11 1 -19 9 -19 19 0 23 2 22 22 -1z m148 -145 c0 -2 -8 -10 -17 -17 -16
-13 -17 -12 -4 4 13 16 21 21 21 13z m1600 -22 c0 -8 -19 -13 -24 -6 -3 5 1 9
9 9 8 0 15 -2 15 -3z m-1600 -18 c0 -2 -7 -7 -16 -10 -8 -3 -12 -2 -9 4 6 10
25 14 25 6z m75 -106 c3 -5 1 -10 -4 -10 -6 0 -11 5 -11 10 0 6 2 10 4 10 3 0
8 -4 11 -10z m35 -24 c0 -2 -8 -10 -17 -17 -16 -13 -17 -12 -4 4 13 16 21 21
21 13z"/>
<path d="M6508 4319 c-17 -17 -33 -19 -202 -19 -151 0 -186 3 -196 15 -23 27
-36 16 -57 -49 -25 -79 -12 -92 38 -40 32 34 36 35 99 32 l65 -3 3 -175 c1
-96 0 -185 -3 -197 -4 -16 -15 -24 -40 -29 -19 -3 -39 -12 -46 -20 -6 -8 -10
-14 -8 -14 2 -1 66 -2 142 -3 119 -2 137 0 135 13 -2 8 -17 17 -33 20 l-30 5
-8 120 c-4 66 -6 156 -5 200 l3 80 61 3 61 3 16 -41 c9 -23 22 -40 31 -40 13
0 16 14 16 80 0 85 -8 97 -42 59z"/>
<path d="M3095 4113 c-98 -261 -97 -259 -135 -266 -19 -4 -30 -13 -30 -23 0
-11 5 -14 16 -10 9 3 51 6 95 6 80 0 107 15 48 27 -17 3 -33 11 -35 18 -3 6 5
37 16 68 l21 57 74 0 74 0 21 -47 c32 -72 30 -85 -7 -95 -63 -16 -34 -28 70
-28 56 0 113 -3 126 -7 19 -5 22 -2 19 13 -2 10 -13 20 -25 22 -12 2 -26 9
-32 16 -6 7 -42 89 -80 182 -116 283 -111 274 -136 274 -19 0 -31 -25 -100
-207z m99 -2 c14 -36 26 -68 26 -73 0 -4 -25 -8 -56 -8 -41 0 -55 3 -51 13 2
6 15 40 27 75 13 34 24 61 25 60 2 -2 15 -32 29 -67z"/>
<path d="M3664 4304 c-103 -37 -168 -132 -168 -249 0 -119 60 -205 164 -236
51 -15 236 -7 275 12 29 14 30 17 33 92 3 72 5 79 27 89 14 6 25 17 25 25 0
10 -25 13 -110 13 -86 0 -110 -3 -110 -14 0 -7 15 -17 33 -22 31 -9 32 -11 35
-71 2 -53 0 -65 -19 -84 -18 -18 -30 -21 -76 -17 -67 6 -101 29 -133 94 -53
105 -23 267 59 321 67 45 160 24 212 -46 35 -48 51 -41 47 22 l-3 52 -50 17
c-62 21 -184 22 -241 2z"/>
<path d="M4173 4313 c-82 -3 -103 -7 -103 -18 0 -10 10 -15 29 -15 26 0 29 -4
34 -37 2 -21 2 -117 -1 -215 l-5 -176 -33 -7 c-19 -3 -34 -11 -34 -18 0 -9 35
-12 130 -12 109 0 130 2 128 15 -2 8 -20 18 -41 23 l-37 9 0 94 0 94 29 0 c37
0 46 -11 106 -132 l50 -100 83 -1 c86 -2 110 11 54 31 -20 7 -41 31 -70 78
-22 38 -52 85 -65 104 l-24 34 31 16 c70 35 91 110 47 170 -44 61 -95 71 -308
63z m167 -48 c20 -11 32 -27 40 -54 19 -72 -20 -121 -97 -121 l-43 0 0 95 0
95 35 0 c20 0 49 -7 65 -15z"/>
<path d="M4620 4298 c0 -12 10 -18 33 -20 l32 -3 3 -193 c3 -203 -2 -228 -40
-234 -13 -2 -24 -10 -26 -18 -2 -13 16 -15 118 -15 106 0 120 2 120 17 0 12
-10 18 -32 20 l-33 3 -3 206 -2 206 32 9 c18 5 34 16 36 24 2 13 -18 15 -118
15 -106 0 -120 -2 -120 -17z"/>
<path d="M5010 4315 c-8 -2 -32 -6 -52 -10 -27 -4 -38 -11 -38 -23 0 -13 9
-17 37 -17 l38 0 3 -180 c1 -99 0 -190 -3 -202 -4 -16 -15 -24 -40 -29 -23 -4
-35 -12 -35 -23 0 -14 20 -16 188 -15 203 2 229 7 290 59 54 45 76 99 76 185
0 89 -21 137 -83 193 -56 51 -120 67 -255 66 -61 -1 -118 -3 -126 -4z m261
-57 c28 -16 47 -37 65 -75 24 -48 26 -62 22 -143 -4 -97 -16 -123 -72 -164
-40 -30 -127 -29 -158 2 -22 22 -23 30 -26 211 l-3 189 23 5 c41 9 109 -2 149
-25z"/>
<path d="M5712 4218 c-21 -57 -59 -155 -82 -218 -47 -125 -60 -145 -95 -154
-12 -3 -26 -13 -29 -22 -5 -13 -2 -15 16 -10 13 3 58 6 101 6 80 0 101 13 45
28 -28 7 -33 13 -31 38 0 16 8 46 17 67 l16 37 74 0 74 0 20 -52 c31 -77 31
-80 -5 -90 -62 -17 -34 -28 70 -28 56 0 112 -3 125 -6 35 -10 27 20 -10 37
-38 16 -31 2 -139 267 -72 178 -85 202 -105 202 -19 0 -28 -15 -62 -102z m82
-165 c7 -22 5 -23 -48 -23 -31 0 -56 3 -56 8 0 9 39 112 48 126 5 10 40 -58
56 -111z"/>
<path d="M6610 4298 c0 -12 10 -18 33 -20 l32 -3 3 -199 c3 -208 0 -222 -41
-228 -12 -2 -23 -10 -25 -18 -2 -13 16 -15 118 -15 106 0 120 2 120 17 0 12
-10 18 -32 20 l-33 3 -3 206 -2 206 32 9 c18 5 34 16 36 24 2 13 -18 15 -118
15 -106 0 -120 -2 -120 -17z"/>
<path d="M7075 4296 c-99 -46 -147 -123 -147 -233 1 -115 66 -210 169 -244 54
-17 189 -7 239 19 198 102 181 394 -27 467 -66 23 -174 19 -234 -9z m199 -34
c54 -31 71 -82 71 -209 0 -121 -7 -141 -69 -187 -38 -29 -114 -29 -153 0 -84
63 -100 293 -25 378 42 47 113 54 176 18z"/>
<path d="M8515 4313 c-52 -13 -105 -78 -105 -128 0 -28 30 -15 44 19 16 38 50
66 82 66 34 0 73 -37 80 -76 12 -66 -30 -141 -168 -292 -80 -89 -76 -92 111
-92 l158 0 7 46 c9 69 7 94 -6 94 -7 0 -21 -14 -30 -30 l-17 -30 -96 0 -96 0
100 95 c108 104 131 140 131 208 0 91 -90 146 -195 120z"/>
<path d="M8869 4297 c-124 -83 -127 -381 -6 -471 64 -47 156 -16 196 67 63
130 48 298 -35 384 -35 37 -46 43 -81 43 -25 0 -53 -8 -74 -23z m100 -26 c27
-27 34 -90 29 -246 -5 -146 -18 -185 -62 -185 -49 0 -60 30 -64 170 -5 160 3
235 29 261 24 24 44 24 68 0z"/>
<path d="M9235 4301 c-48 -21 -75 -58 -75 -101 0 -40 16 -38 34 4 29 69 89 85
138 36 28 -28 30 -36 26 -80 -6 -59 -42 -116 -147 -235 -103 -116 -104 -115
88 -115 l159 0 7 53 c3 28 9 60 11 70 4 12 0 17 -15 17 -12 0 -21 -6 -21 -14
0 -35 -29 -46 -123 -46 l-92 0 106 108 c80 81 109 117 118 147 34 124 -89 213
-214 156z"/>
<path d="M9775 4310 c-3 -6 -48 -10 -99 -10 l-93 0 -6 -67 c-9 -93 -9 -223 1
-223 4 1 18 7 32 15 64 37 150 -6 150 -75 0 -92 -86 -143 -141 -84 -35 38 -56
47 -79 34 -29 -16 -26 -56 7 -77 35 -23 145 -23 191 1 45 23 84 86 89 144 5
57 -19 106 -68 140 -28 20 -44 23 -91 20 l-58 -4 0 48 0 48 84 0 c47 0 87 4
90 8 12 20 18 92 8 92 -6 0 -14 -4 -17 -10z"/>
<path d="M7520 4295 c0 -9 9 -15 24 -15 13 0 34 -9 47 -19 23 -19 24 -24 27
-200 4 -200 -1 -221 -48 -221 -20 0 -30 -5 -30 -15 0 -12 18 -15 105 -15 82 0
105 3 105 14 0 7 -18 17 -42 22 l-43 9 -7 165 c-4 91 -5 167 -2 169 2 3 93
-84 202 -192 144 -143 204 -197 221 -197 l23 0 -7 228 c-8 242 -7 245 39 253
11 2 21 10 24 17 3 9 -20 12 -92 12 -79 0 -96 -3 -96 -15 0 -9 9 -15 24 -15
39 0 56 -25 56 -83 0 -29 3 -97 6 -152 l6 -100 -183 183 -184 182 -88 0 c-71
0 -87 -3 -87 -15z"/>
</g>
</svg>
